<?xml version="1.0" encoding="UTF-8"?>
<svg version="1.1" xmlns="http://www.w3.org/2000/svg" width="200" height="200">
<path d="M0 0 C0.88027359 -0.0087616 1.76054718 -0.01752319 2.66749573 -0.02655029 C5.57115273 -0.04851908 8.47328121 -0.0340006 11.37695312 -0.01708984 C13.39807426 -0.0204587 15.41919341 -0.0253119 17.44030762 -0.03158569 C21.67378042 -0.03895361 25.90672533 -0.02825392 30.14013672 -0.00488281 C35.56446094 0.02360468 40.98754824 0.00720031 46.41182709 -0.02274513 C50.58462836 -0.04082015 54.75713677 -0.03505909 58.9299469 -0.02210617 C60.92981615 -0.01877273 62.92971206 -0.02285703 64.92955017 -0.03450394 C67.72588436 -0.04721588 70.52022074 -0.02783118 73.31640625 0 C74.14149185 -0.01012115 74.96657745 -0.02024231 75.81666565 -0.03067017 C80.06869425 0.04766131 81.69826507 0.28906023 85.16931152 2.99014282 C88.27499916 7.13882723 87.84148682 10.5856761 87.65429688 15.60009766 C87.15820312 18.64697266 87.15820312 18.64697266 84.84570312 21.89697266 C80.30270957 24.85520102 76.35405779 24.8005377 71.11010742 24.80810547 C70.2902536 24.81307037 69.47039978 24.81803528 68.6257019 24.82315063 C65.91126671 24.83776491 63.19688996 24.84457324 60.48242188 24.85009766 C58.59536233 24.85584997 56.7083028 24.86160769 54.82124329 24.86737061 C50.8626783 24.87787868 46.90413361 24.88372253 42.94555664 24.88720703 C37.8780621 24.89268957 32.81083655 24.91671331 27.74342632 24.94517899 C23.84431683 24.96382164 19.94527189 24.96901185 16.0461216 24.97054291 C14.17824649 24.97356658 12.31037244 24.98158547 10.44254112 24.99472809 C7.82631468 25.01182168 5.21074237 25.00990026 2.59448242 25.00341797 C1.44169044 25.01724014 1.44169044 25.01724014 0.26560974 25.03134155 C-4.51138423 24.99434637 -7.80990127 24.23153509 -11.84179688 21.64697266 C-14.17953719 18.14036219 -14.19838028 16.43203778 -14.27929688 12.27197266 C-14.31925781 11.15048828 -14.35921875 10.02900391 -14.40039062 8.87353516 C-12.97721881 0.65297625 -7.07039524 -0.08673108 0 0 Z " fill="#000000" transform="translate(102.841796875,126.35302734375)"/>
<path d="M0 0 C0.81985382 -0.0049649 1.63970764 -0.00992981 2.48440552 -0.01504517 C5.19884071 -0.02965944 7.91321746 -0.03646777 10.62768555 -0.04199219 C12.51474509 -0.0477445 14.40180462 -0.05350222 16.28886414 -0.05926514 C20.24742912 -0.06977321 24.20597381 -0.07561706 28.16455078 -0.07910156 C33.23204532 -0.08458411 38.29927088 -0.10860784 43.3666811 -0.13707352 C47.26579059 -0.15571617 51.16483553 -0.16090638 55.06398582 -0.16243744 C56.93186093 -0.16546111 58.79973498 -0.17348 60.6675663 -0.18662262 C63.28379274 -0.20371621 65.89936506 -0.20179479 68.515625 -0.1953125 C69.66841698 -0.20913467 69.66841698 -0.20913467 70.84449768 -0.22323608 C75.62149165 -0.18624091 78.92000869 0.57657038 82.9519043 3.16113281 C85.28964461 6.66774328 85.3084877 8.37606769 85.3894043 12.53613281 C85.4493457 14.21835937 85.4493457 14.21835937 85.51049805 15.93457031 C84.76102971 20.26366712 83.40886016 21.4819256 79.9519043 24.16113281 C77.00089942 24.8806039 74.13632603 24.84522747 71.11010742 24.80810547 C70.22983383 24.81686707 69.34956024 24.82562866 68.44261169 24.83465576 C65.53895469 24.85662455 62.63682621 24.84210607 59.7331543 24.82519531 C57.71203316 24.82856417 55.69091401 24.83341737 53.6697998 24.83969116 C49.436327 24.84705908 45.20338209 24.83635938 40.9699707 24.81298828 C35.54564648 24.78450079 30.12255918 24.80090516 24.69828033 24.8308506 C20.52547906 24.84892561 16.35297065 24.84316456 12.18016052 24.83021164 C10.18029127 24.8268782 8.18039536 24.8309625 6.18055725 24.84260941 C3.38422306 24.85532135 0.58988668 24.83593665 -2.20629883 24.80810547 C-3.03138443 24.81822662 -3.85647003 24.82834778 -4.70655823 24.83877563 C-8.95858682 24.76044415 -10.58815765 24.51904524 -14.0592041 21.81796265 C-17.16489174 17.66927824 -16.7313794 14.22242937 -16.54418945 9.20800781 C-16.0480957 6.16113281 -16.0480957 6.16113281 -13.7355957 2.91113281 C-9.19260214 -0.04709555 -5.24395037 0.00756777 0 0 Z " fill="#000000" transform="translate(105.048095703125,48.8388671875)"/>
<path d="M0 0 C3.14038086 1.3894043 3.14038086 1.3894043 6.46484375 3.32421875 C7.06124161 3.6674971 7.65763947 4.01077545 8.27210999 4.36445618 C9.52857316 5.09071237 10.78149972 5.82311795 12.03100586 6.5612793 C13.92165544 7.67814017 15.82174839 8.77714674 17.72460938 9.87304688 C34.21153597 19.42307195 34.21153597 19.42307195 36 23 C36.375 25.8125 36.375 25.8125 36 29 C32.73414761 32.75498801 29.31192305 35.22580476 25 37.6640625 C23.865625 38.31117187 22.73125 38.95828125 21.5625 39.625 C20.37513713 40.29191086 19.18763591 40.95857548 18 41.625 C16.81207033 42.29872212 15.62456637 42.97319545 14.4375 43.6484375 C12.25218919 44.89009137 10.06490527 46.12828383 7.875 47.36181641 C5.99975597 48.43033606 4.14620076 49.53813622 2.3203125 50.68896484 C-0.67521525 52.38151367 -2.6114257 52.44198795 -6 52 C-7.64453125 50.8515625 -7.64453125 50.8515625 -9 49 C-9.44140625 46.1875 -9.44140625 46.1875 -9.5625 43 C-9.72458072 38.19540995 -9.72458072 38.19540995 -12 34 C-14.69087606 33.10304131 -16.3059205 32.86318656 -19.07250977 32.82641602 C-19.88667862 32.81292618 -20.70084747 32.79943634 -21.53968811 32.78553772 C-22.4147551 32.77509933 -23.28982208 32.76466095 -24.19140625 32.75390625 C-26.04102066 32.72098503 -27.89062992 32.68777311 -29.74023438 32.65429688 C-32.65906422 32.60676214 -35.57787064 32.5622941 -38.49682617 32.52319336 C-41.31190158 32.48361118 -44.12655894 32.43205282 -46.94140625 32.37890625 C-47.81849747 32.3704921 -48.69558868 32.36207794 -49.59925842 32.35340881 C-55.77328165 32.22671835 -55.77328165 32.22671835 -58 30 C-58.265625 28.125 -58.265625 28.125 -58.25 26 C-58.25515625 25.29875 -58.2603125 24.5975 -58.265625 23.875 C-58 22 -58 22 -56 20 C-52.96498839 19.77811926 -50.01426851 19.67459224 -46.9765625 19.65625 C-46.07884125 19.6416272 -45.18112 19.62700439 -44.25619507 19.61193848 C-41.37917541 19.56533492 -38.50222551 19.53120114 -35.625 19.5 C-31.84609789 19.45886995 -28.06768317 19.40516829 -24.2890625 19.34375 C-23.4191568 19.3384729 -22.5492511 19.3331958 -21.65298462 19.32775879 C-20.8388913 19.31434448 -20.02479797 19.30093018 -19.18603516 19.28710938 C-18.47258942 19.27981812 -17.75914368 19.27252686 -17.02407837 19.26501465 C-14.64472459 18.95348343 -13.03908251 18.253491 -11 17 C-9.28531859 13.57063719 -9.65145884 9.63554269 -9.4765625 5.84765625 C-9 3 -9 3 -7.8359375 1.12109375 C-5.10312512 -0.54766615 -3.17156841 -0.26788725 0 0 Z " fill="#000000" transform="translate(68,74)"/>
<path d="M0 0 C1.12474228 -0.0127597 2.24948456 -0.02551941 3.40830994 -0.03866577 C4.61878494 -0.04089142 5.82925995 -0.04311707 7.07641602 -0.04541016 C8.94790062 -0.05539536 8.94790062 -0.05539536 10.85719299 -0.06558228 C13.49592359 -0.07570812 16.13424212 -0.08126453 18.77294922 -0.08007812 C22.14690734 -0.07987485 25.52002393 -0.10719022 28.89378262 -0.14162254 C32.12129536 -0.16926178 35.34880099 -0.16804119 38.57641602 -0.17041016 C39.78486679 -0.18478119 40.99331757 -0.19915222 42.23838806 -0.21395874 C43.3662825 -0.20780548 44.49417694 -0.20165222 45.65625 -0.1953125 C46.645681 -0.19816254 47.635112 -0.20101257 48.65452576 -0.20394897 C52.1560065 0.42834169 53.84020522 1.8645347 56.39282227 4.29052734 C58.4782238 8.46133041 57.8470934 13.74781599 57.39282227 18.29052734 C55.58478823 21.36418521 54.53242763 22.72072466 51.39282227 24.29052734 C49.60178225 24.39662514 47.80683269 24.43932438 46.01269531 24.45166016 C44.88780197 24.4612677 43.76290863 24.47087524 42.60392761 24.48077393 C40.77273125 24.48714874 40.77273125 24.48714874 38.90454102 24.49365234 C37.02881157 24.50220245 37.02881157 24.50220245 35.1151886 24.51092529 C32.46461343 24.52038643 29.81415179 24.52727737 27.16357422 24.53076172 C23.77403506 24.53623886 20.38489916 24.56024972 16.99548626 24.58873367 C13.75686848 24.6118894 10.51822999 24.61381205 7.27954102 24.61865234 C6.06481613 24.63099915 4.85009125 24.64334595 3.59855652 24.65606689 C2.4642067 24.6530658 1.32985687 24.6500647 0.16113281 24.64697266 C-0.8343306 24.65061829 -1.82979401 24.65426392 -2.85542297 24.65802002 C-6.09387907 24.22552912 -7.9694412 23.1855921 -10.60717773 21.29052734 C-13.5209528 17.05631041 -13.12741692 12.22879773 -12.60717773 7.29052734 C-11.36889613 4.3186515 -10.55533319 2.88717444 -7.84825134 1.1836853 C-5.1079615 0.0915696 -2.94940363 0.02274353 0 0 Z " fill="#000000" transform="translate(132.607177734375,87.70947265625)"/>
</svg>
